# xmcd CD database file
#
# Track frame offsets:
#	150
#	30586
#	64303
#	90371
#	116626
#	141605
#	157563
#	187635
#	216129
#	235140
#	260176
#
# Disc length: 3640 seconds
#
# Revision: 0
# Processed by: cddbd v1.5.2PL0 Copyright (c) Steve Scherf et al.
# Submitted via: CDex 1.51
#
DISCID=910e360b
DTITLE=Mascamad - Jozéfinn'
DYEAR=1900
DGENRE=Jazz
TTITLE0=Roch' zoizo
TTITLE1=Baluden break
TTITLE2=Mascamad swing
TTITLE3=Baladirou
TTITLE4=Morgad Véli
TTITLE5=1995
TTITLE6=El Dolfin
TTITLE7=Tortï Bondié
TTITLE8=Baladiroots
TTITLE9=N'Django
TTITLE10=Docker Titine
EXTD=
EXTT0=
EXTT1=
EXTT2=
EXTT3=
EXTT4=
EXTT5=
EXTT6=
EXTT7=
EXTT8=
EXTT9=
EXTT10=
PLAYORDER=
